<svg width="218" height="48" viewBox="0 0 218 48" fill="none" xmlns="http://www.w3.org/2000/svg">
<path d="M10.3808 11.7217L0.715454 21.3845C0.683949 21.4161 0.642958 21.4365 0.598765 21.4425C0.554571 21.4486 0.509615 21.4399 0.470791 21.418C0.431967 21.396 0.401419 21.362 0.383829 21.321C0.366239 21.28 0.36258 21.2344 0.373412 21.1911C0.861976 19.2044 1.80103 17.3566 3.11796 15.7906C3.36902 15.4924 3.63491 15.2026 3.91563 14.921C4.12983 14.7075 4.34923 14.5022 4.5738 14.3054C6.18333 12.8939 8.109 11.8904 10.1881 11.3797C10.2313 11.3692 10.2768 11.373 10.3176 11.3907C10.3584 11.4084 10.3923 11.439 10.4141 11.4777C10.4359 11.5164 10.4445 11.5612 10.4385 11.6053C10.4324 11.6493 10.4122 11.6902 10.3808 11.7217Z" fill="#92E48B"/>
<path d="M4.98198 34.6509C4.48828 34.3118 4.01766 33.9402 3.57321 33.5387C3.52801 33.4972 3.48482 33.4541 3.44365 33.4092C1.37547 31.1248 0.159758 28.1964 0.002063 25.1193C-0.0100174 24.8667 0.0310577 24.6143 0.122633 24.3786C0.214209 24.1428 0.354248 23.9289 0.533697 23.7506L4.52031 19.765C4.68934 19.596 4.89002 19.4619 5.11088 19.3705C5.33174 19.279 5.56845 19.2319 5.80751 19.2319C6.04656 19.2319 6.28327 19.279 6.50413 19.3705C6.72499 19.4619 6.92566 19.596 7.0947 19.765L10.4076 23.0796C10.7109 23.382 10.8976 23.7817 10.9348 24.2083C10.972 24.6349 10.8573 25.0609 10.611 25.4112C8.98104 27.727 8.01553 30.4444 7.81895 33.2693C7.72005 34.6677 6.14113 35.4479 4.98198 34.6509Z" fill="#63D69B"/>
<path d="M11.8453 21.5749L8.56305 18.2935C8.39403 18.1246 8.25995 17.924 8.16847 17.7032C8.07699 17.4825 8.02991 17.2458 8.02991 17.0069C8.02991 16.7679 8.07699 16.5313 8.16847 16.3105C8.25995 16.0898 8.39403 15.8892 8.56305 15.7202L12.7522 11.5321C12.9475 11.3365 13.185 11.1882 13.4465 11.0984C13.7079 11.0086 13.9864 10.9797 14.2607 11.014L14.3039 11.0192C17.6168 11.4423 20.6946 12.9556 23.0524 15.3204C23.1932 15.4612 23.3305 15.6039 23.4644 15.7487C23.5196 15.8086 23.5705 15.8722 23.6168 15.9391L23.6371 15.9681C24.44 17.1312 23.6803 18.7244 22.2698 18.8233C19.3567 19.0248 16.5595 20.0436 14.1994 21.7628C13.8489 22.0168 13.4192 22.1374 12.9877 22.103C12.5562 22.0686 12.1511 21.8813 11.8453 21.5749Z" fill="#35C6A8"/>
<path d="M22.066 33.0667C21.7852 33.3477 21.4953 33.6135 21.1962 33.8642C18.5419 36.0916 15.1277 37.2044 11.6704 36.969C11.229 36.9398 10.8133 36.7514 10.5005 36.4387C10.1878 36.126 9.99927 35.7104 9.97008 35.2692C9.73461 31.8127 10.8477 28.3993 13.0757 25.7458C13.3262 25.4473 13.592 25.1574 13.8733 24.8762C14.0876 24.662 14.3069 24.4568 14.5315 24.2605C15.8579 23.0992 17.4006 22.2111 19.071 21.6471C20.7415 21.0831 22.5068 20.8543 24.2659 20.9739C24.7082 21.0027 25.1249 21.1914 25.4383 21.5047C25.7517 21.818 25.9404 22.2346 25.9692 22.6768C26.0887 24.4354 25.8598 26.2003 25.2957 27.8703C24.7316 29.5403 23.8433 31.0826 22.6818 32.4087C22.4857 32.6332 22.2805 32.8526 22.066 33.0667Z" fill="#00B4AF"/>
<path d="M39.896 26.04C39.896 20.408 43.384 16.888 47.768 16.888C50.424 16.888 52.312 18.104 53.272 19.672V17.144H58.744V35H53.272V32.472C52.28 34.04 50.392 35.256 47.736 35.256C43.384 35.256 39.896 31.672 39.896 26.04ZM53.272 26.072C53.272 23.224 51.448 21.656 49.368 21.656C47.32 21.656 45.464 23.192 45.464 26.04C45.464 28.888 47.32 30.488 49.368 30.488C51.448 30.488 53.272 28.92 53.272 26.072ZM75.0228 35V25.304C75.0228 22.872 73.6788 21.528 71.5988 21.528C69.5188 21.528 68.1748 22.872 68.1748 25.304V35H62.7028V17.144H68.1748V19.512C69.2628 18.008 71.1828 16.952 73.5828 16.952C77.7108 16.952 80.4628 19.768 80.4628 24.568V35H75.0228ZM83.1773 26.04C83.1773 20.408 86.6653 16.888 91.0493 16.888C93.7053 16.888 95.5933 18.104 96.5533 19.672V17.144H102.025V35H96.5533V32.472C95.5613 34.04 93.6733 35.256 91.0173 35.256C86.6653 35.256 83.1773 31.672 83.1773 26.04ZM96.5533 26.072C96.5533 23.224 94.7293 21.656 92.6493 21.656C90.6013 21.656 88.7453 23.192 88.7453 26.04C88.7453 28.888 90.6013 30.488 92.6493 30.488C94.7293 30.488 96.5533 28.92 96.5533 26.072ZM105.984 35V11.32H111.456V24.408L116.864 17.144H123.616L116.192 26.104L123.68 35H116.896L111.456 27.512V35H105.984ZM140.261 29.816C140.261 32.92 137.509 35.256 133.029 35.256C128.261 35.256 125.061 32.6 124.805 29.144H130.213C130.341 30.392 131.461 31.224 132.965 31.224C134.373 31.224 135.109 30.584 135.109 29.784C135.109 26.904 125.381 28.984 125.381 22.424C125.381 19.384 127.973 16.888 132.645 16.888C137.253 16.888 139.813 19.448 140.165 22.968H135.109C134.949 21.752 134.021 20.952 132.485 20.952C131.205 20.952 130.501 21.464 130.501 22.328C130.501 25.176 140.165 23.16 140.261 29.816ZM151.481 21.272C149.689 21.272 148.313 22.36 147.993 24.344H154.841C154.841 22.392 153.305 21.272 151.481 21.272ZM160.025 29.08C159.161 32.568 155.993 35.256 151.545 35.256C146.297 35.256 142.521 31.736 142.521 26.072C142.521 20.408 146.233 16.888 151.545 16.888C156.761 16.888 160.441 20.344 160.441 25.784C160.441 26.296 160.409 26.84 160.345 27.384H147.961C148.153 29.72 149.593 30.808 151.353 30.808C152.889 30.808 153.753 30.04 154.201 29.08H160.025ZM163.328 35V11.32H168.8V19.544C169.888 18.008 171.84 16.952 174.304 16.952C178.368 16.952 181.088 19.768 181.088 24.568V35H175.648V25.304C175.648 22.872 174.304 21.528 172.224 21.528C170.144 21.528 168.8 22.872 168.8 25.304V35H163.328ZM183.802 26.04C183.802 20.408 187.29 16.888 191.674 16.888C194.33 16.888 196.218 18.104 197.178 19.672V17.144H202.65V35H197.178V32.472C196.186 34.04 194.298 35.256 191.642 35.256C187.29 35.256 183.802 31.672 183.802 26.04ZM197.178 26.072C197.178 23.224 195.354 21.656 193.274 21.656C191.226 21.656 189.37 23.192 189.37 26.04C189.37 28.888 191.226 30.488 193.274 30.488C195.354 30.488 197.178 28.92 197.178 26.072ZM207.473 28.792V21.688H205.297V17.144H207.473V12.792H212.945V17.144H216.529V21.688H212.945V28.856C212.945 29.912 213.393 30.36 214.609 30.36H216.561V35H213.777C210.065 35 207.473 33.432 207.473 28.792Z" fill="#35C6A8"/>
</svg>
