<svg width="32" height="32" viewBox="0 0 32 32" fill="none" xmlns="http://www.w3.org/2000/svg">
<path d="M12.7764 0.888233L0.880633 12.781C0.841858 12.8199 0.791408 12.8449 0.737016 12.8524C0.682624 12.8598 0.627293 12.8492 0.57951 12.8222C0.531727 12.7951 0.494129 12.7532 0.47248 12.7028C0.450831 12.6523 0.446327 12.5962 0.459659 12.5429C1.06097 10.0977 2.21672 7.82351 3.83756 5.89616C4.14656 5.52914 4.47381 5.17239 4.81931 4.82592C5.08295 4.56305 5.35297 4.31046 5.62937 4.06814C7.61033 2.33097 9.98038 1.09593 12.5393 0.467364C12.5925 0.454385 12.6484 0.459143 12.6987 0.480915C12.7489 0.502687 12.7906 0.540277 12.8174 0.587954C12.8443 0.635632 12.8548 0.690781 12.8474 0.744994C12.84 0.799207 12.8151 0.849509 12.7764 0.888233Z" fill="#92E48B"/>
<path d="M6.13167 29.1088C5.52404 28.6914 4.94481 28.2341 4.3978 27.7399C4.34217 27.6889 4.28901 27.6357 4.23834 27.5805C1.69288 24.7689 0.196625 21.1648 0.00253907 17.3776C-0.0123291 17.0666 0.0382249 16.7561 0.150933 16.4659C0.263642 16.1757 0.435997 15.9124 0.656858 15.693L5.56346 10.7877C5.7715 10.5797 6.01849 10.4147 6.29031 10.3021C6.56214 10.1895 6.85348 10.1316 7.1477 10.1316C7.44192 10.1316 7.73326 10.1895 8.00508 10.3021C8.27691 10.4147 8.52389 10.5797 8.73194 10.7877L12.8093 14.8672C13.1826 15.2394 13.4124 15.7313 13.4582 16.2563C13.504 16.7814 13.3629 17.3057 13.0597 17.7368C11.0536 20.5871 9.86527 23.9315 9.62332 27.4083C9.5016 29.1295 7.55831 30.0898 6.13167 29.1088Z" fill="#63D69B"/>
<path d="M14.5787 13.0153L10.539 8.97666C10.331 8.76872 10.1659 8.52184 10.0533 8.25013C9.94076 7.97841 9.88281 7.68719 9.88281 7.39308C9.88281 7.09898 9.94076 6.80776 10.0533 6.53604C10.1659 6.26433 10.331 6.01745 10.539 5.80951L15.6949 0.654913C15.9353 0.4142 16.2275 0.231608 16.5493 0.121088C16.8711 0.0105685 17.2139 -0.0249555 17.5515 0.0172308L17.6047 0.0236074C21.6821 0.544401 25.4702 2.40685 28.372 5.31743C28.5453 5.49067 28.7143 5.66639 28.8791 5.84458C28.947 5.91822 29.0097 5.99653 29.0667 6.07893L29.0917 6.11453C30.0798 7.54613 29.1448 9.507 27.4088 9.62869C23.8235 9.8767 20.3808 11.1306 17.4761 13.2465C17.0447 13.5591 16.5158 13.7076 15.9847 13.6652C15.4536 13.6228 14.955 13.3924 14.5787 13.0153Z" fill="#35C6A8"/>
<path d="M27.1583 27.159C26.8128 27.5048 26.456 27.8319 26.0878 28.1405C22.821 30.882 18.619 32.2516 14.3637 31.9618C13.8205 31.9259 13.3089 31.694 12.9239 31.3091C12.539 30.9243 12.307 30.4127 12.2711 29.8697C11.9812 25.6155 13.3512 21.4145 16.0933 18.1486C16.4016 17.7812 16.7289 17.4244 17.0751 17.0783C17.3387 16.8147 17.6087 16.5622 17.8851 16.3205C19.5176 14.8913 21.4163 13.7982 23.4722 13.1041C25.5281 12.4099 27.7009 12.1284 29.8659 12.2755C30.4103 12.311 30.9231 12.5432 31.3088 12.9288C31.6946 13.3144 31.9268 13.8272 31.9623 14.3714C32.1094 16.5358 31.8277 18.708 31.1334 20.7634C30.4391 22.8188 29.3458 24.717 27.9163 26.3492C27.6749 26.6255 27.4223 26.8954 27.1583 27.159Z" fill="#00B4AF"/>
</svg>
