<svg width="308" height="48" viewBox="0 0 308 48" fill="none" xmlns="http://www.w3.org/2000/svg">
<path d="M1.56075 25.8702C6.15862 24.8079 10.4679 22.7512 14.1857 19.8447C14.5754 19.5391 15.0636 19.3866 15.5581 19.4162C16.0525 19.4458 16.519 19.6553 16.8696 20.0052L18.8929 22.0285C19.2421 22.3764 19.4523 22.8399 19.4837 23.3319C19.5151 23.8239 19.3657 24.3105 19.0635 24.7C15.2537 29.5729 12.9204 35.4357 12.34 41.5938C12.1896 43.1727 10.3548 43.9769 9.09769 43.0106C8.25974 42.3651 7.46473 41.6657 6.71773 40.9168C3.24518 37.4558 0.91263 33.0166 0.0322651 28.1935C-0.0599748 27.6841 0.047289 27.1587 0.331836 26.7262C0.616383 26.2936 1.05641 25.9872 1.56075 25.8702Z" fill="#35C6A8"/>
<path d="M40.9175 6.72041C41.6664 7.46741 42.3658 8.26241 43.0113 9.10036C43.9775 10.3574 43.1734 12.1922 41.5945 12.3426C35.4359 12.9241 29.573 15.2588 24.7005 19.0699C24.311 19.3721 23.8245 19.5216 23.3325 19.4901C22.8405 19.4587 22.3769 19.2486 22.029 18.8993L20.0057 16.8761C19.6558 16.5255 19.4463 16.059 19.4167 15.5646C19.3871 15.0701 19.5396 14.5819 19.8452 14.1922C22.751 10.4733 24.8067 6.16294 25.8676 1.56425C25.9839 1.05871 26.2906 0.617433 26.7239 0.332186C27.1572 0.0469398 27.6837 -0.0603303 28.1941 0.0326807C33.0175 0.913685 37.4567 3.24704 40.9175 6.72041Z" fill="#63D69B"/>
<path d="M45.4284 16.6234C45.875 16.6374 46.3045 16.7986 46.6501 17.0819C46.9956 17.3652 47.2379 17.7547 47.3392 18.1899C49.0616 25.415 47.4168 33.2784 42.411 39.2829C41.9426 39.8459 41.4447 40.3913 40.9174 40.9192C40.3901 41.447 39.8446 41.9449 39.2811 42.4127C33.275 47.4208 25.4116 49.0633 18.1879 47.3409C17.7527 47.2396 17.3632 46.9973 17.0799 46.6518C16.7966 46.3062 16.6354 45.8767 16.6214 45.4301C16.4307 38.4945 18.8223 31.7351 23.3325 26.4627C23.8076 25.9059 24.3088 25.3631 24.8362 24.8342C25.3635 24.3053 25.9063 23.8041 26.4647 23.3305C31.7367 18.8227 38.4945 16.4325 45.4284 16.6234Z" fill="#00B4AF"/>
<path d="M18.5913 0.205463C20.1176 -0.130336 21.422 1.32686 20.9451 2.81431C19.8115 6.34926 17.9835 9.62233 15.5684 12.4416C15.0932 12.9984 14.592 13.5413 14.0646 14.0702C13.5373 14.5991 12.9944 15.1003 12.436 15.5739C9.61755 17.9893 6.34527 19.8178 2.81098 20.9521C1.32352 21.4291 -0.136012 20.1246 0.202117 18.5984C1.03067 14.8328 2.75297 11.3217 5.22364 8.36158C5.69205 7.79856 6.18994 7.25311 6.7173 6.72524C7.24465 6.19737 7.79011 5.69949 8.35365 5.2316C11.3136 2.75916 14.825 1.03526 18.5913 0.205463Z" fill="#92E48B"/>
<path d="M80.452 28.88H91.684L86.068 13.644L80.452 28.88ZM88.512 6.572L101.512 40.476H95.844L93.088 33.196H79.152L76.24 40.476H70.676L83.78 6.572H88.512Z" fill="#35C6A8"/>
<path d="M119.093 15.308C126.529 15.308 126.997 23.056 126.945 24.616V40.476H121.953V24.876C121.953 23.628 121.173 20.144 117.429 20.144C113.217 20.144 111.293 23.784 110.565 25.032V40.476H105.573V16.036H110.565V20.196C112.021 18.064 114.621 15.308 119.093 15.308Z" fill="#35C6A8"/>
<path d="M153.27 34.548C153.27 36.68 153.79 39.228 153.946 40.476H149.162C148.954 39.904 148.746 38.968 148.59 37.98C147.238 39.54 144.95 41.204 141.258 41.204C135.902 41.204 131.95 38.136 131.95 33.144C131.95 30.648 133.822 25.448 141.414 25.5C143.39 25.5 145.522 25.812 148.278 26.748V24.2C148.278 20.456 145.106 19.364 142.662 19.364C138.606 19.364 135.382 21.548 134.914 22.12L133.354 18.792C134.238 17.804 137.93 15.308 143.078 15.308C148.59 15.308 153.27 17.856 153.27 23.94V34.548ZM148.278 35.12V29.608C146.354 28.932 144.534 28.62 142.922 28.62C139.334 28.62 136.942 30.232 136.942 33.092C136.942 36.524 140.114 37.72 142.766 37.72C145.678 37.72 147.498 36.004 148.278 35.12Z" fill="#35C6A8"/>
<path d="M172.186 27.944L181.91 40.476H176.086L168.286 29.972C166.726 30.804 165.374 31.48 164.698 31.688V40.476H159.706V6H164.698V27.84C167.194 26.488 172.654 22.796 175.67 16.036H180.974C178.79 21.652 175.41 25.5 172.186 27.944Z" fill="#35C6A8"/>
<path d="M190.478 22.588C190.478 27.632 205.35 24.46 205.35 33.716C205.35 39.28 200.046 41.204 195.106 41.204C189.074 41.204 185.382 38.344 184.966 37.928L186.942 34.704C188.034 35.432 190.894 37.304 194.794 37.304C196.978 37.304 200.254 36.732 200.254 33.924C200.254 28.568 185.382 32.156 185.382 22.692C185.382 18.532 189.438 15.308 194.794 15.308C199.37 15.308 202.074 17.284 203.79 18.584L201.866 21.808C201.346 21.444 198.798 19.26 195.106 19.26C192.61 19.26 190.478 20.612 190.478 22.588Z" fill="#35C6A8"/>
<path d="M214.543 26.904H228.739C228.531 23.316 226.399 19.676 221.615 19.676C216.883 19.676 214.699 23.42 214.543 26.904ZM221.563 15.308C228.999 15.308 233.523 21.184 233.523 28.308C233.523 28.828 233.471 29.4 233.367 29.92H214.543C214.699 33.3 217.247 36.992 222.603 36.992C225.151 36.992 227.439 36.264 229.207 34.964L231.183 38.396C228.739 40.268 225.463 41.204 222.135 41.204C214.075 41.204 209.343 35.432 209.343 28.308C209.343 21.184 214.127 15.308 221.563 15.308Z" fill="#35C6A8"/>
<path d="M252.241 15.308C259.677 15.308 260.145 23.056 260.093 24.616V40.476H255.101V24.876C255.101 23.628 254.321 20.144 250.577 20.144C246.365 20.144 244.441 23.784 243.713 25.032V40.476H238.721V6H243.713V20.196C245.169 18.064 247.769 15.308 252.241 15.308Z" fill="#35C6A8"/>
<path d="M286.418 34.548C286.418 36.68 286.938 39.228 287.094 40.476H282.31C282.102 39.904 281.894 38.968 281.738 37.98C280.386 39.54 278.098 41.204 274.406 41.204C269.05 41.204 265.098 38.136 265.098 33.144C265.098 30.648 266.97 25.448 274.562 25.5C276.538 25.5 278.67 25.812 281.426 26.748V24.2C281.426 20.456 278.254 19.364 275.81 19.364C271.754 19.364 268.53 21.548 268.062 22.12L266.502 18.792C267.386 17.804 271.078 15.308 276.226 15.308C281.738 15.308 286.418 17.856 286.418 23.94V34.548ZM281.426 35.12V29.608C279.502 28.932 277.682 28.62 276.07 28.62C272.482 28.62 270.09 30.232 270.09 33.092C270.09 36.524 273.262 37.72 275.914 37.72C278.826 37.72 280.646 36.004 281.426 35.12Z" fill="#35C6A8"/>
<path d="M306.062 35.536L307.518 39.436C307.206 39.592 305.126 41.204 301.694 41.204C294.778 41.204 294.57 35.588 294.57 32.208V19.988H290.878V16.036H294.57V9.484H299.562V16.036H306.322V19.988H299.562V32.312C299.562 35.276 300.394 36.68 302.37 36.68C304.398 36.68 305.75 35.692 306.062 35.536Z" fill="#35C6A8"/>
</svg>
