<svg width="160" height="160" viewBox="0 0 160 160" fill="none" xmlns="http://www.w3.org/2000/svg">
<path d="M80.4 142.939C113.2 142.939 139.8 116.539 139.8 83.939C139.8 51.339 113.2 24.939 80.4 24.939C47.6 24.939 21 51.339 21 83.939C21 116.539 47.6 142.939 80.4 142.939Z" fill="#F2F2F7" stroke="#D1D1D6" stroke-width="2" stroke-miterlimit="10"/>
<path d="M125.9 76.2387V112.339C125.9 119.839 119.8 125.939 112.2 125.939H48.8001C41.3001 125.939 35.2001 119.939 35.1001 112.439C35.1001 112.339 35.1001 112.339 35.1001 112.239V76.2387C35.1001 76.1387 35.1001 76.1387 35.1001 76.0387C35.1001 75.8387 35.1001 75.6387 35.2001 75.4387C35.3001 75.1387 35.4001 74.9387 35.5001 74.6387L52.5001 42.1387C53.1001 40.8387 54.4001 40.1387 55.8001 40.1387H105.1C106.5 40.1387 107.7 40.8387 108.4 42.1387L125.4 74.6387C125.5 74.8387 125.6 75.1387 125.7 75.4387C125.9 75.6387 125.9 75.9387 125.9 76.2387Z" fill="#F2F2F7" stroke="#D1D1D6" stroke-width="2" stroke-miterlimit="10"/>
<path d="M105.216 27.0059C106.521 41.253 107.174 44.5157 104.219 57.4185C103.258 60.287 102.297 63.4288 100.238 65.6143C97.3555 69.0293 92.1391 70.5318 87.8836 69.439C83.4908 68.3463 79.9217 64.5215 79.0981 59.8772C78.4117 57.0087 79.3726 53.5938 81.8435 51.818C84.4517 50.1788 88.1581 50.5886 90.3545 52.6376C92.8254 54.6865 93.7863 57.8283 93.6491 60.8334C93.5118 63.8386 92.4136 66.8437 90.9036 69.439C87.4901 75.8207 86.0848 75.7972 79.0981 86.2783" stroke="#AEAEB2" stroke-width="2" stroke-miterlimit="10" stroke-dasharray="4 4"/>
<path d="M112.87 21.6996C112.348 23.6034 110.261 24.2957 108.174 23.0842C105.913 22.0458 104.348 21.1804 104.695 19.4497C105.217 17.719 107.304 17.5459 109.739 17.3728C112.696 17.0267 113.218 19.7958 112.87 21.6996Z" fill="#D1D1D6"/>
<path d="M95.9989 23.43C96.8685 24.9876 99.3035 26.0261 101.043 24.4684C102.956 22.7377 104.521 21.5262 103.652 19.7955C102.782 18.2378 101.391 18.757 98.4339 19.1032C95.9989 19.6224 94.9553 21.6993 95.9989 23.43Z" fill="#D1D1D6"/>
<path d="M103.652 17.0265C104.869 16.8534 106.087 17.5457 106.435 18.5842C106.609 18.9303 106.783 19.4495 106.783 19.7957C107.13 22.2187 106.261 24.2956 104.869 24.4686C103.304 24.8148 101.739 23.084 101.565 20.8341C101.565 20.1418 101.565 19.7957 101.565 19.2764C101.739 18.0649 102.434 17.1996 103.652 17.0265C103.826 17.0265 103.652 17.0265 103.652 17.0265Z" fill="#AEAEB2"/>
<path d="M125.9 76.239V116.039C125.9 121.539 121.5 125.939 115.9 125.939H45.1001C39.6001 125.939 35.1001 121.539 35.1001 116.039V76.039C35.1001 75.839 35.1001 75.639 35.2001 75.439H58.0001C61.4001 75.439 64.2001 78.139 64.2001 81.639C64.2001 83.339 64.9001 84.939 66.0001 86.039C67.2001 87.239 68.6001 87.839 70.4001 87.839H90.7001C94.1001 87.839 96.9001 85.139 96.9001 81.639C96.9001 79.939 97.6001 78.339 98.7001 77.239C99.9001 76.039 101.3 75.439 103 75.439H125.7C125.9 75.639 125.9 75.939 125.9 76.239Z" fill="white" stroke="#D1D1D6" stroke-width="2" stroke-miterlimit="10"/>
<path d="M69.0904 101.198C70.3575 101.198 71.3847 100.171 71.3847 98.9042C71.3847 97.6371 70.3575 96.6099 69.0904 96.6099C67.8233 96.6099 66.7961 97.6371 66.7961 98.9042C66.7961 100.171 67.8233 101.198 69.0904 101.198Z" fill="#AEAEB2"/>
<path d="M91.9093 101.198C93.1764 101.198 94.2036 100.171 94.2036 98.9042C94.2036 97.6371 93.1764 96.6099 91.9093 96.6099C90.6422 96.6099 89.615 97.6371 89.615 98.9042C89.615 100.171 90.6422 101.198 91.9093 101.198Z" fill="#AEAEB2"/>
<path d="M84.2204 116.266H77.0275C75.9113 116.266 74.9812 115.336 74.9812 114.22C74.9812 113.104 75.9113 112.174 77.0275 112.174H84.1584C85.2745 112.174 86.2046 113.104 86.2046 114.22C86.2667 115.336 85.3365 116.266 84.2204 116.266Z" fill="#AEAEB2"/>
</svg>
