<svg width="160" height="160" viewBox="0 0 160 160" fill="none" xmlns="http://www.w3.org/2000/svg">
<path d="M142.911 83.0972C142.911 104.295 131.148 123.163 114.609 132.597C114.609 132.597 114.493 132.713 114.376 132.713C112.28 133.994 109.601 135.159 108.436 135.741H108.32C107.388 136.091 101.798 138.42 100.866 138.42C100.749 138.42 100.633 138.42 100.633 138.536C100.517 138.536 100.4 138.536 100.284 138.653C97.8377 139.352 94.3437 139.934 93.6448 140.051C93.6448 140.4 82.9297 141.448 73.8451 139.468C72.6804 139.468 65.2264 137.488 58.7041 134.227C40.3021 124.677 27.6069 105.343 27.6069 83.0972C27.6069 51.3012 53.463 25.5615 85.2591 25.5615C117.172 25.5615 142.911 51.3012 142.911 83.0972Z" fill="#F2F2F7" stroke="#D1D1D6" stroke-width="2" stroke-miterlimit="10"/>
<path d="M102.729 106.624V137.954C102.613 137.954 101.099 138.537 100.982 138.537C100.866 138.537 100.749 138.537 100.749 138.653C100.633 138.653 100.516 138.653 100.4 138.769C97.9541 139.468 94.46 140.051 93.7612 140.167V106.624H102.729Z" fill="white" stroke="#D1D1D6" stroke-width="2" stroke-miterlimit="10"/>
<path d="M110.882 106.624V134.693C110.3 135.042 109.252 135.392 108.436 135.858H108.32C106.806 136.557 105.059 137.255 102.031 138.187V106.74H110.882V106.624Z" fill="white" stroke="#D1D1D6" stroke-width="2" stroke-miterlimit="10"/>
<path d="M147.337 71.4502V107.09H119.501V107.206H63.7122V43.1482H116.706C117.404 43.0317 118.103 43.0317 118.918 43.0317C119.85 43.0317 120.665 43.0317 121.597 43.1482C122.762 43.2647 123.81 43.3811 124.858 43.6141C130.332 44.7788 135.224 47.574 138.951 51.301C144.192 56.5421 147.337 63.6467 147.337 71.4502Z" fill="white" stroke="#D1D1D6" stroke-width="2" stroke-miterlimit="10"/>
<path d="M137.67 80.4185C141.281 80.4185 144.309 77.6233 144.309 74.0127C144.309 70.4022 141.397 67.6069 137.67 67.6069C134.059 67.6069 131.031 70.4022 131.031 74.0127C131.031 77.6233 133.943 80.4185 137.67 80.4185Z" fill="#D1D1D6"/>
<path d="M138.02 80.4185C141.514 80.4185 144.425 77.6233 144.425 74.0127C144.425 70.4022 141.514 67.6069 138.02 67.6069C134.525 67.6069 131.614 70.4022 131.614 74.0127C131.614 77.6233 134.409 80.4185 138.02 80.4185Z" fill="white" stroke="#D1D1D6" stroke-width="2" stroke-miterlimit="10"/>
<path d="M138.019 76.4586C139.417 76.4586 140.465 75.4104 140.465 74.0127C140.465 72.6151 139.417 71.5669 138.019 71.5669C136.622 71.5669 135.573 72.6151 135.573 74.0127C135.573 75.4104 136.622 76.4586 138.019 76.4586Z" fill="#D1D1D6"/>
<path d="M91.4318 68.6551V107.206H34.595V68.6551C34.595 56.5424 43.2137 46.2931 54.5112 43.7308C56.3747 43.2649 58.2382 43.1484 60.2181 43.1484H66.0416C78.8532 43.1484 89.3354 52.466 91.3154 64.6952C91.3154 65.8599 91.4318 67.2575 91.4318 68.6551Z" fill="#AEAEB2" stroke="#D1D1D6" stroke-width="2" stroke-miterlimit="10"/>
<path d="M78.1543 128.986C76.5238 131.432 74.5438 135.392 73.3791 138.653C73.2627 138.886 73.1462 139.236 73.1462 139.469C72.3309 139.352 71.5156 139.119 70.7003 138.886C70.0015 137.256 69.5356 135.509 69.5356 135.509C70.0015 134.926 70.3509 134.46 70.8168 133.994C73.0297 131.316 75.3591 129.452 78.1543 128.986Z" fill="#D1D1D6"/>
<path d="M73.845 139.585C73.612 139.585 73.3791 139.468 73.1462 139.468C72.3309 139.352 71.5156 139.119 70.7003 138.886C70.118 138.769 69.6521 138.536 69.0697 138.42C68.8368 138.304 68.6039 138.304 68.3709 138.187C68.138 138.071 67.9051 138.071 67.5556 137.954C64.5275 137.022 61.6157 135.741 58.8205 134.344C55.9087 129.452 54.2782 123.512 51.4829 115.243C51.4829 115.126 51.4829 115.126 51.3665 115.01C51.3665 115.01 51.5994 115.01 52.1817 115.243C52.5311 115.476 53.1135 115.709 53.8123 116.174C55.2099 117.106 57.4228 118.737 60.684 121.416C64.7604 124.793 68.2545 129.801 70.7003 133.878C71.7485 135.741 72.6803 137.372 73.3791 138.653C73.612 138.886 73.7285 139.235 73.845 139.585Z" fill="#D1D1D6"/>
<path d="M69.0697 138.304C68.8368 138.187 68.6038 138.187 68.3709 138.071C68.138 137.954 67.905 137.954 67.5556 137.838C62.1981 127.123 56.1417 120.251 52.6476 116.291C52.2982 115.825 51.9488 115.476 51.5994 115.126C51.5994 115.01 51.5994 115.01 51.4829 114.894C51.4829 114.894 51.7158 114.894 52.2982 115.126C52.6476 115.359 53.2299 115.592 53.9288 116.058C57.5393 120.251 63.7121 127.356 69.0697 138.304Z" fill="#F2F2F7"/>
<path d="M123.461 113.263C123.461 113.263 123.344 113.496 123.111 113.962C121.714 116.524 117.055 125.026 114.842 132.48C114.726 132.48 114.726 132.597 114.609 132.597C114.609 132.597 114.493 132.713 114.376 132.713C112.28 133.994 109.601 135.159 108.436 135.741H108.32C104.826 137.372 101.099 138.42 100.866 138.42C102.613 132.713 105.175 127.588 108.786 123.279C109.484 122.464 110.183 121.648 110.882 120.95C110.999 120.833 111.115 120.717 111.231 120.6C114.26 117.572 117.404 115.592 120.433 114.311C120.782 114.194 121.131 113.962 121.481 113.845C121.83 113.612 122.412 113.496 122.995 113.263C123.228 113.379 123.344 113.263 123.461 113.263Z" fill="#D1D1D6"/>
<path d="M123.344 113.03C123.344 113.03 123.228 113.146 123.111 113.496C123.111 113.612 122.995 113.612 122.995 113.729C116.939 119.086 112.163 128.054 109.135 135.508C108.902 135.625 108.669 135.741 108.436 135.858H108.32C108.087 135.974 107.738 136.091 107.505 136.207C107.621 135.974 107.738 135.858 107.738 135.858C109.252 132.131 113.328 121.532 120.433 114.427C120.666 114.194 120.899 113.962 121.132 113.729C121.947 113.496 122.646 113.263 123.344 113.03Z" fill="#F2F2F7"/>
<path d="M91.7812 103.13V107.206H14.0964C12.9318 107.206 12 106.275 12 105.226C12 104.062 12.9318 103.13 14.0964 103.13H91.7812Z" fill="#F2F2F7" stroke="#D1D1D6" stroke-width="2" stroke-miterlimit="10"/>
<path d="M107.738 72.3823H138.369C139.301 72.3823 139.999 73.0811 139.999 74.0129C139.999 74.9446 139.301 75.6435 138.369 75.6435H107.738V72.3823Z" fill="white" stroke="#D1D1D6" stroke-width="2" stroke-miterlimit="10"/>
<path d="M106.689 56.7756C107.039 56.3097 107.854 56.5426 107.854 57.2415V72.266V75.76H95.2754V57.2415C95.2754 56.6591 95.9742 56.3097 96.4401 56.7756L100.516 61.6673C101.099 62.3661 102.147 62.3661 102.729 61.6673L106.689 56.7756Z" fill="white" stroke="#D1D1D6" stroke-width="2" stroke-miterlimit="10"/>
<path d="M24.928 30.5698C23.4139 37.6744 22.5987 44.8955 22.4822 52.1166C22.3657 58.7553 22.3657 66.0929 24.3457 72.4987C26.7915 80.6515 34.362 88.8043 43.6795 86.3585C48.8042 84.9608 52.9971 80.535 54.1618 75.061C54.8606 71.5669 53.8123 67.4905 51.0171 65.394C47.9889 63.4141 43.5631 63.88 40.8843 66.3258C37.9726 68.7716 36.8079 72.4987 36.9243 76.1092C37.0408 79.7197 38.4384 83.2138 40.069 86.3585C44.9607 95.3266 70.3509 90.5513 89.2189 88.3384" stroke="#D1D1D6" stroke-width="2" stroke-miterlimit="10" stroke-dasharray="4 4"/>
<path d="M15.8435 24.7464C16.4259 27.0758 18.9882 27.8911 21.5505 26.4935C24.3458 25.0958 26.2093 24.1641 25.6269 21.9512C25.0446 19.8547 22.4823 19.6218 19.5705 19.3889C15.96 19.0394 15.2612 22.417 15.8435 24.7464Z" fill="#F2F2F7" stroke="#D1D1D6" stroke-width="2" stroke-miterlimit="10"/>
<path d="M36.2255 26.843C35.2937 28.823 32.2655 29.9877 30.1691 28.0077C27.8397 25.9112 26.0927 24.5136 27.0244 22.3007C27.9562 20.3207 29.8197 20.9031 33.3138 21.4854C36.2255 22.1842 37.3902 24.7466 36.2255 26.843Z" fill="#F2F2F7" stroke="#D1D1D6" stroke-width="2" stroke-miterlimit="10"/>
<path d="M26.9081 19.0395C25.394 18.8065 23.9964 19.6218 23.5305 21.0195C23.414 21.3689 23.1811 21.9512 23.1811 22.5336C22.8317 25.4453 23.7634 28.0076 25.5105 28.2405C27.2575 28.4735 29.0045 26.2606 29.4704 23.5818C29.4704 22.7665 29.4704 22.1841 29.4704 21.6018C29.354 20.2042 28.3057 19.2724 26.9081 19.0395C26.7916 19.0395 26.9081 19.0395 26.9081 19.0395Z" fill="#F2F2F7"/>
<path d="M26.9081 19.0395C25.394 18.8065 23.9964 19.6218 23.5305 21.0195C23.414 21.3689 23.1811 21.9512 23.1811 22.5336C22.8317 25.4453 23.7634 28.0076 25.5105 28.2405C27.2575 28.4735 29.0045 26.2606 29.4704 23.5818C29.4704 22.7665 29.4704 22.1841 29.4704 21.6018C29.354 20.2042 28.3057 19.2724 26.9081 19.0395ZM26.9081 19.0395C26.9081 19.0395 26.7916 19.0395 26.9081 19.0395Z" stroke="#D1D1D6" stroke-width="2" stroke-miterlimit="10"/>
<path d="M95.9741 107.207H94.5765C95.1588 108.604 95.5082 110.817 95.7412 113.496C94.1106 113.845 91.0824 113.379 89.2189 111.982C88.6366 109.885 88.1707 108.255 87.7048 107.207H86.1907C86.5401 107.789 87.1225 109.652 87.8213 112.331C85.259 114.777 83.6284 113.845 78.6202 111.399C78.1544 111.166 77.572 110.817 76.8732 110.584C75.7085 109.187 74.7767 108.022 73.845 107.207H71.6321C72.5638 107.789 73.845 108.954 75.2426 110.584C67.9051 116.175 61.2664 113.729 57.6558 112.448C57.0735 112.215 56.6076 112.098 56.1417 111.982C52.1818 109.885 48.5712 108.255 45.543 107.207H40.8843V107.323C46.5913 108.255 59.9852 115.126 71.9815 122.93V123.046H72.098C81.1825 128.986 89.4518 135.509 92.5965 140.284L93.7612 140.167V140.284V140.167C93.9941 140.167 94.3435 140.051 94.5765 140.051C94.8094 140.051 95.0424 139.934 95.1588 139.934C94.9259 138.886 94.1106 134.693 93.0624 129.569C93.6447 129.918 94.3435 130.267 95.2753 130.267C95.5082 130.267 95.7412 130.267 95.8576 130.267C95.7412 133.994 95.6247 137.488 95.3918 140.051C95.8576 139.934 96.3235 139.934 96.7894 139.818C97.1388 133.994 98.187 114.311 95.9741 107.207ZM95.7412 114.894C95.8576 116.641 95.9741 118.504 95.9741 120.368C94.46 121.066 93.5283 120.251 92.1306 118.737C91.6648 118.155 91.0824 117.572 90.5001 117.223C90.2671 116.058 89.9177 115.01 89.6848 113.962C91.5483 114.777 93.9941 115.126 95.7412 114.894ZM89.4518 119.203C89.9177 121.416 90.5001 123.862 90.9659 126.307C90.6165 126.307 90.3836 126.54 90.1507 126.657C89.6848 127.006 88.986 127.356 87.3554 126.89C86.7731 125.842 86.1907 124.793 85.6084 123.862C84.9096 122.58 84.0943 121.416 83.5119 120.368C86.1907 120.484 87.9377 120.135 89.4518 119.203ZM88.1707 113.845C88.5201 115.01 88.753 116.291 89.1024 117.689C87.8213 118.737 86.1907 119.203 82.5802 118.737C81.1825 116.641 79.9014 114.661 78.7367 113.03C82.9296 115.126 85.259 116.175 88.1707 113.845ZM62.0816 115.243C63.1299 115.476 64.1781 115.592 65.3428 115.592C68.6039 115.592 72.2144 114.661 76.0579 111.749C77.6885 113.845 79.4355 116.408 81.1825 119.203C79.0861 121.183 75.592 121.416 72.5638 121.649C69.0698 119.319 65.4592 117.223 62.0816 115.243ZM74.4273 122.813C77.1061 122.58 80.0179 122.115 81.8814 120.368C83.279 122.58 84.6766 125.026 86.0742 127.356C85.4919 128.52 84.3272 128.753 81.7649 128.171C79.552 126.307 76.9897 124.56 74.4273 122.813ZM84.0943 129.802C85.1425 129.802 86.1907 129.569 87.006 128.637C88.5201 131.316 90.0342 133.994 91.1989 136.091C89.2189 134.111 86.7731 132.014 84.0943 129.802ZM93.1788 137.256C91.8977 134.81 90.1507 131.549 88.2872 128.404C89.5683 128.52 90.2671 128.054 90.8495 127.822C90.9659 127.822 90.9659 127.705 91.0824 127.705C91.0824 127.705 91.1989 127.822 91.3153 127.938C92.0142 131.083 92.5965 134.344 93.1788 137.256ZM95.8576 128.637C94.5765 128.986 93.5283 128.287 92.5965 127.356C92.1306 124.793 91.5483 122.231 90.9659 119.669L91.0824 119.785C92.2471 121.066 93.7612 122.58 95.9741 121.998C95.9741 124.095 95.9741 126.424 95.8576 128.637Z" fill="#D1D1D6"/>
</svg>
