<svg width="27" height="27" viewBox="0 0 27 27" fill="none" xmlns="http://www.w3.org/2000/svg">
<path d="M0.852651 14.1333C3.36451 13.553 5.71873 12.4294 7.74975 10.8415C7.9627 10.6746 8.22939 10.5913 8.49951 10.6074C8.76963 10.6236 9.0245 10.7381 9.21603 10.9292L10.3213 12.0345C10.5122 12.2246 10.6269 12.4779 10.6441 12.7466C10.6613 13.0154 10.5796 13.2812 10.4145 13.494C8.33322 16.1561 7.05852 19.359 6.74146 22.7233C6.65927 23.5858 5.6569 24.0251 4.97015 23.4973C4.51237 23.1446 4.07805 22.7625 3.66996 22.3534C1.77287 20.4626 0.498578 18.0375 0.0176267 15.4026C-0.0327648 15.1243 0.0258344 14.8372 0.181285 14.6009C0.336735 14.3646 0.577124 14.1972 0.852651 14.1333Z" fill="#35C6A8"/>
<path d="M22.3535 3.67142C22.7626 4.07952 23.1447 4.51383 23.4974 4.97161C24.0253 5.65835 23.5859 6.66071 22.7234 6.7429C19.3589 7.06058 16.1559 8.33601 13.494 10.4181C13.2812 10.5832 13.0154 10.6648 12.7467 10.6476C12.4779 10.6305 12.2246 10.5157 12.0346 10.3249L10.9292 9.21957C10.7381 9.02805 10.6236 8.77318 10.6074 8.50306C10.5913 8.23294 10.6746 7.96625 10.8415 7.75331C12.429 5.72167 13.552 3.36687 14.1316 0.854566C14.1952 0.578381 14.3627 0.337309 14.5994 0.181476C14.8361 0.0256436 15.1238 -0.032959 15.4026 0.0178538C18.0377 0.499155 20.4629 1.77389 22.3535 3.67142Z" fill="#63D69B"/>
<path d="M24.818 9.08172C25.062 9.08937 25.2966 9.17743 25.4854 9.33219C25.6742 9.48695 25.8065 9.69975 25.8619 9.9375C26.8028 13.8847 25.9043 18.1805 23.1696 21.4608C22.9137 21.7684 22.6417 22.0664 22.3536 22.3547C22.0655 22.6431 21.7676 22.9151 21.4597 23.1707C18.1785 25.9066 13.8826 26.8039 9.93628 25.863C9.69852 25.8076 9.48572 25.6753 9.33096 25.4865C9.1762 25.2977 9.08814 25.0631 9.08049 24.8191C8.97628 21.0301 10.2828 17.3374 12.7468 14.457C13.0064 14.1528 13.2802 13.8563 13.5683 13.5673C13.8564 13.2784 14.1529 13.0046 14.4579 12.7459C17.3381 10.2832 21.03 8.97745 24.818 9.08172Z" fill="#00B4AF"/>
<path d="M10.1566 0.112312C10.9904 -0.0711379 11.703 0.724943 11.4425 1.53755C10.8232 3.46873 9.82455 5.25683 8.50514 6.79702C8.24557 7.10122 7.97173 7.39779 7.68363 7.68673C7.39553 7.97568 7.09896 8.24951 6.79391 8.50823C5.25416 9.82779 3.46648 10.8267 1.53567 11.4464C0.723056 11.707 -0.074302 10.9943 0.110421 10.1606C0.563067 8.10335 1.50397 6.18523 2.85372 4.56808C3.10962 4.26049 3.38162 3.96251 3.66972 3.67413C3.95782 3.38575 4.25581 3.11375 4.56368 2.85813C6.18071 1.50742 8.09902 0.565638 10.1566 0.112312Z" fill="#92E48B"/>
</svg>
